<?xml version="1.0" encoding="UTF-8"?>
<svg width="29px" height="37px" viewBox="0 0 29 37" version="1.1" xmlns="http://www.w3.org/2000/svg" xmlns:xlink="http://www.w3.org/1999/xlink">
    <title>002-copy</title>
    <g id="Page-1" stroke="none" stroke-width="1" fill="none" fill-rule="evenodd">
        <g id="Desktop-HD" transform="translate(-1142.000000, -449.000000)" fill="#FFFFFF" fill-rule="nonzero">
            <g id="Group-10" transform="translate(246.000000, 431.000000)">
                <g id="Group-9" transform="translate(874.000000, 0.000000)">
                    <g id="002-copy" transform="translate(22.000000, 18.000000)">
                        <path d="M20.0815253,7 L2.91847469,7 C1.30802104,7 0,8.28816083 0,9.87416232 L0,34.1258377 C0,35.7118392 1.30802104,37 2.91847469,37 L20.0815253,37 C21.691979,37 23,35.7118392 23,34.1258377 L23,9.87416232 C22.9924392,8.28816083 21.6844181,7 20.0815253,7 Z M20.9510191,34.1183917 C20.9510191,34.5949367 20.5578567,34.9821296 20.0739645,34.9821296 L2.91091387,34.9821296 C2.4270217,34.9821296 2.0338593,34.5949367 2.0338593,34.1183917 L2.0338593,9.87416232 C2.0338593,9.39761727 2.4270217,9.01042442 2.91091387,9.01042442 L20.0739645,9.01042442 C20.5578567,9.01042442 20.9510191,9.39761727 20.9510191,9.87416232 L20.9510191,34.1183917 Z" id="Shape"></path>
                        <path d="M26.0815253,0 L8.91847469,0 C7.30802104,0 6,1.28816083 6,2.87416232 C6,3.43261355 6.45364892,3.87937453 7.02071006,3.87937453 C7.5877712,3.87937453 8.04142012,3.43261355 8.04142012,2.87416232 C8.04142012,2.39761727 8.43458251,2.01042442 8.91847469,2.01042442 L26.0815253,2.01042442 C26.5654175,2.01042442 26.9585799,2.39761727 26.9585799,2.87416232 L26.9585799,27.1258377 C26.9585799,27.6023827 26.5654175,27.9895756 26.0815253,27.9895756 C25.5144642,27.9895756 25.0608153,28.4363366 25.0608153,28.9947878 C25.0608153,29.553239 25.5144642,30 26.0815253,30 C27.691979,30 29,28.7118392 29,27.1258377 L29,2.87416232 C29,1.28816083 27.691979,0 26.0815253,0 Z" id="Path"></path>
                    </g>
                </g>
            </g>
        </g>
    </g>
</svg>